<?xml version="1.0" encoding="UTF-8" standalone="no"?>
<!-- Created with Inkscape (http://www.inkscape.org/) -->

<svg
   width="520.88751mm"
   height="137.57845mm"
   viewBox="0 0 520.88752 137.57844"
   version="1.1"
   id="svg1"
   inkscape:version="1.4.2 (ebf0e940d0, 2025-05-08)"
   sodipodi:docname="desenho.svg"
   xml:space="preserve"
   xmlns:inkscape="http://www.inkscape.org/namespaces/inkscape"
   xmlns:sodipodi="http://sodipodi.sourceforge.net/DTD/sodipodi-0.dtd"
   xmlns="http://www.w3.org/2000/svg"
   xmlns:svg="http://www.w3.org/2000/svg"><sodipodi:namedview
     id="namedview1"
     pagecolor="#ffffff"
     bordercolor="#000000"
     borderopacity="0.25"
     inkscape:showpageshadow="2"
     inkscape:pageopacity="0.0"
     inkscape:pagecheckerboard="0"
     inkscape:deskcolor="#d1d1d1"
     inkscape:document-units="mm"
     inkscape:zoom="0.10912949"
     inkscape:cx="3578.3179"
     inkscape:cy="1905.9926"
     inkscape:window-width="2220"
     inkscape:window-height="1340"
     inkscape:window-x="0"
     inkscape:window-y="0"
     inkscape:window-maximized="0"
     inkscape:current-layer="layer1" /><defs
     id="defs1" /><g
     inkscape:label="Camada 1"
     inkscape:groupmode="layer"
     id="layer1"
     transform="translate(-2925.6024,-1134.933)"><g
       id="g22"
       transform="translate(2996.7243,1326.9248)"><g
         id="g1"
         transform="translate(-109.42283)"><text
           xml:space="preserve"
           style="font-style:normal;font-variant:normal;font-weight:500;font-stretch:normal;font-size:61.736px;font-family:'Atkinson Hyperlegible Next';-inkscape-font-specification:'Atkinson Hyperlegible Next, Medium';font-variant-ligatures:normal;font-variant-caps:normal;font-variant-numeric:normal;font-variant-east-asian:normal;text-align:start;writing-mode:lr-tb;direction:ltr;text-anchor:start;fill:#000000;fill-opacity:1;stroke-width:0.264583"
           x="196.67461"
           y="-149.13039"
           id="text21"><tspan
             sodipodi:role="line"
             id="tspan21"
             style="font-style:normal;font-variant:normal;font-weight:500;font-stretch:normal;font-size:61.736px;font-family:'Atkinson Hyperlegible Next';-inkscape-font-specification:'Atkinson Hyperlegible Next, Medium';font-variant-ligatures:normal;font-variant-caps:normal;font-variant-numeric:normal;font-variant-east-asian:normal;writing-mode:lr-tb;stroke-width:0.264583"
             x="196.67461"
             y="-149.13039"
             dy="20">Universidade</tspan><tspan
             sodipodi:role="line"
             style="font-style:normal;font-variant:normal;font-weight:500;font-stretch:normal;font-size:61.736px;font-family:'Atkinson Hyperlegible Next';-inkscape-font-specification:'Atkinson Hyperlegible Next, Medium';font-variant-ligatures:normal;font-variant-caps:normal;font-variant-numeric:normal;font-variant-east-asian:normal;writing-mode:lr-tb;stroke-width:0.264583"
             x="196.67461"
             y="-71.960388"
             id="tspan22">da Corunha</tspan></text><g
           id="g21"
           transform="translate(2.0901048,-412.92404)"><circle
             style="fill:#fe0096;fill-opacity:1;stroke-width:0.264583"
             id="circle21"
             cx="105"
             cy="289.7215"
             r="68.789223" /><path
             id="path21"
             style="fill:#ffffff;fill-opacity:1;stroke-width:0.253319"
             d="m 105.00099,263.31692 a 53.824576,26.404511 0 0 0 -38.831129,8.11959 c 12.930483,6.0228 25.860459,12.04776 38.798969,18.05298 12.94969,-6.01042 25.89045,-12.04031 38.83211,-18.06832 a 53.824576,26.404511 0 0 0 -38.79995,-8.10425 z m 47.6226,14.09981 -44.20526,11.7764 49.59622,-4.03827 a 53.824576,26.404511 0 0 0 -5.39096,-7.73813 z m -95.259553,0.0128 a 53.824576,26.404511 0 0 0 -5.378584,7.73021 l 49.533877,4.03332 z m 47.604793,12.51953 c -12.976299,5.906 -25.844292,12.05028 -38.767297,18.07327 a 53.824576,26.404511 0 0 0 38.799457,8.10375 53.824576,26.404511 0 0 0 38.76829,-8.08841 c -12.93427,-6.02799 -25.81295,-12.17752 -38.80045,-18.08861 z m -3.03737,0.19098 -49.762947,4.62803 a 53.824576,26.404511 0 0 0 5.195525,7.24484 z m 6.07473,0 44.6174,11.88623 a 53.824576,26.404511 0 0 0 5.20741,-7.25226 z" /></g></g></g><g
       id="g27"
       transform="translate(2996.7243,857.78602)" /></g></svg>
